0
SECTION
2
ENTITIES
0
TEXT
8
0
10
0
20
0
30
0
40
2.5
1
RE_ CUST SI _ MEA _ 5RCY-70862 __ PO_25_3253
0
TEXT
8
0
10
0
20
-10
30
0
40
2.5
1
Hi Teo
0
TEXT
8
0
10
0
20
-20
30
0
40
2.5
1
Please find Shipping instruction for 5RCY-70862.
0
TEXT
8
0
10
0
20
-30
30
0
40
2.5
1
POL: RUGAO/NANTONG/SHANGHAI, CHINA
0
TEXT
8
0
10
0
20
-35
30
0
40
2.5
1
POD: TUTICORIN, INDIA
0
TEXT
8
0
10
0
20
-45
30
0
40
2.5
1
Shipper:
0
TEXT
8
0
10
0
20
-50
30
0
40
2.5
1
ASIA PACIFIC PAPERBOARD TRADING PTE LTD
0
TEXT
8
0
10
0
20
-55
30
0
40
2.5
1
80 RAFFLES PLACE, #50-01 UOB PLAZA 1
0
TEXT
8
0
10
0
20
-60
30
0
40
2.5
1
SINGAPORE 048624
0
TEXT
8
0
10
0
20
-70
30
0
40
2.5
1
Consignee:
0
TEXT
8
0
10
0
20
-75
30
0
40
2.5
1
KPP-ANTALIS (SINGAPORE) PTE. LTD.
0
TEXT
8
0
10
0
20
-80
30
0
40
2.5
1
8 TEMASEK BOULEVARD
0
TEXT
8
0
10
0
20
-85
30
0
40
2.5
1
#42-01 SUNTEC TOWER 3
0
TEXT
8
0
10
0
20
-90
30
0
40
2.5
1
SINGAPORE 038988
0
TEXT
8
0
10
0
20
-100
30
0
40
2.5
1
Notify Party:
0
TEXT
8
0
10
0
20
-105
30
0
40
2.5
1
KPP-ANTALIS (SINGAPORE) PTE. LTD.
0
TEXT
8
0
10
0
20
-110
30
0
40
2.5
1
8 TEMASEK BOULEVARD
0
TEXT
8
0
10
0
20
-115
30
0
40
2.5
1
#42-01 SUNTEC TOWER 3
0
TEXT
8
0
10
0
20
-120
30
0
40
2.5
1
SINGAPORE 038988
0
TEXT
8
0
10
0
20
-130
30
0
40
2.5
1
Description of Goods:
0
TEXT
8
0
10
0
20
-135
30
0
40
2.5
1
6X20'GP
0
TEXT
8
0
10
0
20
-140
30
0
40
2.5
1
UNCOATED WOODFREE PAPER IN REAMS
0
TEXT
8
0
10
0
20
-145
30
0
40
2.5
1
H.S.CODE: 48025700
0
TEXT
8
0
10
0
20
-150
30
0
40
2.5
1
GROSS WT: 123,294 KG
0
TEXT
8
0
10
0
20
-160
30
0
40
2.5
1
Shipping line: OA_CFR TERM
0
TEXT
8
0
10
0
20
-165
30
0
40
2.5
1
Documents Required:
0
TEXT
8
0
10
0
20
-170
30
0
40
2.5
1
1) 3 Original invoice
0
TEXT
8
0
10
0
20
-175
30
0
40
2.5
1
2) 3 Packing list
0
TEXT
8
0
10
0
20
-180
30
0
40
2.5
1
3) 3 Original BL + 3 N/N
0
TEXT
8
0
10
0
20
-185
30
0
40
2.5
1
Please revert with draft BL once available.
0
TEXT
8
0
10
0
20
-195
30
0
40
2.5
1
Best Regards,
0
TEXT
8
0
10
0
20
-200
30
0
40
2.5
1
Najiha Nur Hanna
0
TEXT
8
0
10
0
20
-205
30
0
40
2.5
1
Shipping Documentation
0
TEXT
8
0
10
0
20
-210
30
0
40
2.5
1
DID : +971 04 4938219
0
TEXT
8
0
10
0
20
-215
30
0
40
2.5
1
APRIL Fine Paper Trading (Middle East) Fze
0
TEXT
8
0
10
0
20
-220
30
0
40
2.5
1
#813, 4 EA, Dubai Airport Free Zone
0
TEXT
8
0
10
0
20
-225
30
0
40
2.5
1
P.O. Box : 293775, Dubai, United Arab Emirates
0
TEXT
8
0
10
0
20
-230
30
0
40
2.5
1
Website : www.aprilasia.com | www.paperone.com
0
ENDSEC
0
EOF
