0
SECTION
2
ENTITIES
0
TEXT
8
0
10
0
20
0
30
0
40
2.5
1
BILL OF LADING (DRAFT)
0
TEXT
8
0
10
0
20
-5
30
0
40
2.5
1
========================================
0
TEXT
8
0
10
0
20
-15
30
0
40
2.5
1
Shipper (Principal or Seller): APRIL FINE PAPER TRADING
0
TEXT
8
0
10
0
20
-20
30
0
40
2.5
1
  ON BEHALF OF VITAL SOLUTIONS PTE LTD; 77 ROBINSON ROAD, #21-01; SINGAPORE 068896
0
TEXT
8
0
10
0
20
-25
30
0
40
2.5
1
Consignee: CLIFFORD PAPER INC
0
TEXT
8
0
10
0
20
-30
30
0
40
2.5
1
  70 EAST STREET; RIDGEFIELD, NJ 07657, USA
0
TEXT
8
0
10
0
20
-35
30
0
40
2.5
1
Notify Party/Intermediate Consignee: CLIFFORD PAPER INC
0
TEXT
8
0
10
0
20
-40
30
0
40
2.5
1
POL: SINGAPORE, SINGAPORE (MYPKG)
0
TEXT
8
0
10
0
20
-45
30
0
40
2.5
1
PORT OF DISCHARGE: SAVANNAH, US (USSAV)
0
TEXT
8
0
10
0
20
-50
30
0
40
2.5
1
No. of Containers or Packages: 15 x 40'HC
0
TEXT
8
0
10
0
20
-55
30
0
40
2.5
1
Gross Weight (KG): 322,590 KG
0
TEXT
8
0
10
0
20
-60
30
0
40
2.5
1
Vessel Name: NAP 914 V.BS007
0
TEXT
8
0
10
0
20
-65
30
0
40
2.5
1
Voy.: BS291
0
TEXT
8
0
10
0
20
-70
30
0
40
2.5
1
Description of Goods: UNCOATED WOODFREE PAPER IN REAMS
0
TEXT
8
0
10
0
20
-75
30
0
40
2.5
1
B/L No.: MEDUUD104478
0
TEXT
8
0
10
0
20
-80
30
0
40
2.5
1
Booking No.: MSDUL0942598562
0
TEXT
8
0
10
0
20
-85
30
0
40
2.5
1
Freight: PREPAID
0
ENDSEC
0
EOF
