0
SECTION
2
ENTITIES
0
TEXT
8
0
10
0
20
0
30
0
40
2.5
1
BILL OF LADING (DRAFT)
0
TEXT
8
0
10
0
20
-5
30
0
40
2.5
1
========================================
0
TEXT
8
0
10
0
20
-15
30
0
40
2.5
1
Shipper (Principal or Seller): APRIL FAR EAST (M) SDN BHD
0
TEXT
8
0
10
0
20
-20
30
0
40
2.5
1
  80 RAFFLES PLACE, #50-01 UOB PLAZA 1; SINGAPORE 048624
0
TEXT
8
0
10
0
20
-25
30
0
40
2.5
1
Consignee (Non-Negotiable): CLIFFORD PAPER INC
0
TEXT
8
0
10
0
20
-30
30
0
40
2.5
1
  70 EAST STREET; RIDGEFIELD, NJ 07657, USA
0
TEXT
8
0
10
0
20
-35
30
0
40
2.5
1
Notify Party: CLIFFORD PAPER INC
0
TEXT
8
0
10
0
20
-40
30
0
40
2.5
1
Port of Loading: BUATAN, INDONESIA (IDBUA)
0
TEXT
8
0
10
0
20
-45
30
0
40
2.5
1
Port of Discharge: NEW YORK, US (USNYC)
0
TEXT
8
0
10
0
20
-50
30
0
40
2.5
1
No. of Containers or Packages: 4 x 40'HC
0
TEXT
8
0
10
0
20
-55
30
0
40
2.5
1
Gross Weight (KG): 60,258 KG
0
TEXT
8
0
10
0
20
-60
30
0
40
2.5
1
Ocean Vessel: INDO SUKSES 65 V.51NW1
0
TEXT
8
0
10
0
20
-65
30
0
40
2.5
1
Voy.: 2545E
0
TEXT
8
0
10
0
20
-70
30
0
40
2.5
1
Kinds of Packages; Description of Goods: UNCOATED WOODFREE PAPER IN REAMS
0
TEXT
8
0
10
0
20
-75
30
0
40
2.5
1
B/L NUMBER: SIN597371470
0
TEXT
8
0
10
0
20
-80
30
0
40
2.5
1
Booking No.: SIN827235909
0
TEXT
8
0
10
0
20
-85
30
0
40
2.5
1
Freight: PREPAID
0
ENDSEC
0
EOF
