0
SECTION
2
ENTITIES
0
TEXT
8
0
10
0
20
0
30
0
40
2.5
1
SHIPPING INSTRUCTION
0
TEXT
8
0
10
0
20
-5
30
0
40
2.5
1
========================================
0
TEXT
8
0
10
0
20
-15
30
0
40
2.5
1
Shipper (Principal or Seller): APRIL FINE PAPER TRADING
0
TEXT
8
0
10
0
20
-20
30
0
40
2.5
1
  ON BEHALF OF VITAL SOLUTIONS PTE LTD; 77 ROBINSON ROAD, #21-01; SINGAPORE 068896
0
TEXT
8
0
10
0
20
-25
30
0
40
2.5
1
Consignee (Non-Negotiable): CLIFFORD PAPER INC
0
TEXT
8
0
10
0
20
-30
30
0
40
2.5
1
  70 EAST STREET; RIDGEFIELD, NJ 07657, USA
0
TEXT
8
0
10
0
20
-35
30
0
40
2.5
1
Notify: CLIFFORD PAPER INC
0
TEXT
8
0
10
0
20
-40
30
0
40
2.5
1
PORT OF LOADING: PORT KLANG (WESTPORT), MALAYSIA (MYPKG)
0
TEXT
8
0
10
0
20
-45
30
0
40
2.5
1
Discharge Port: SAVANNAH, US (USSAV)
0
TEXT
8
0
10
0
20
-50
30
0
40
2.5
1
No. of Containers: 15 x 40'HC
0
TEXT
8
0
10
0
20
-55
30
0
40
2.5
1
Gross Weight??(KGS): 322,590 KG
0
TEXT
8
0
10
0
20
-60
30
0
40
2.5
1
Export Carrier (vessel, voyage): NAP 914 V.BS007
0
TEXT
8
0
10
0
20
-65
30
0
40
2.5
1
Voy.: BS291
0
TEXT
8
0
10
0
20
-70
30
0
40
2.5
1
Commodity: UNCOATED WOODFREE PAPER IN REAMS
0
TEXT
8
0
10
0
20
-75
30
0
40
2.5
1
HS Code: 48025700
0
TEXT
8
0
10
0
20
-80
30
0
40
2.5
1
Booking No.: MSDUL0942598562
0
TEXT
8
0
10
0
20
-85
30
0
40
2.5
1
OC No.: 5APH-57532
0
TEXT
8
0
10
0
20
-90
30
0
40
2.5
1
Freight: PREPAID
0
ENDSEC
0
EOF
