0
SECTION
2
ENTITIES
0
TEXT
8
0
10
0
20
0
30
0
40
2.5
1
SHIPPING INSTRUCTION
0
TEXT
8
0
10
0
20
-5
30
0
40
2.5
1
========================================
0
TEXT
8
0
10
0
20
-15
30
0
40
2.5
1
Shipper: APRIL FAR EAST (M) SDN BHD
0
TEXT
8
0
10
0
20
-20
30
0
40
2.5
1
  TOWER 2, AVENUE 5, LEVEL 6; BANGSAR SOUTH CITY, NO. 8 JALAN KERINCHI; 59200 KUALA LUMPUR, MALAYSIA
0
TEXT
8
0
10
0
20
-25
30
0
40
2.5
1
CONSIGNEE: KTP CO., LTD
0
TEXT
8
0
10
0
20
-30
30
0
40
2.5
1
  KTP BLDG., 36 SANGWON-GIL; SEOUNGDONG-GU, SEOUL, SOUTH KOREA; TEL:02-2285-6025
0
TEXT
8
0
10
0
20
-35
30
0
40
2.5
1
NOTIFY PARTY: KTP CO., LTD
0
TEXT
8
0
10
0
20
-40
30
0
40
2.5
1
POL: NANTONG, CHINA (CNNTG)
0
TEXT
8
0
10
0
20
-45
30
0
40
2.5
1
Port of Discharge (POD): APAPA, NIGERIA (NGAPP)
0
TEXT
8
0
10
0
20
-50
30
0
40
2.5
1
Total Containers: 5 x 40'HC
0
TEXT
8
0
10
0
20
-55
30
0
40
2.5
1
Gross Weight??(KGS): 100,240 KG
0
TEXT
8
0
10
0
20
-60
30
0
40
2.5
1
Ocean Vessel: VISION 202 V.002
0
TEXT
8
0
10
0
20
-65
30
0
40
2.5
1
Voy. No: QI540A
0
TEXT
8
0
10
0
20
-70
30
0
40
2.5
1
Commodity: COATED IVORY BOARD
0
TEXT
8
0
10
0
20
-75
30
0
40
2.5
1
HS Code: 48105900
0
TEXT
8
0
10
0
20
-80
30
0
40
2.5
1
Booking Reference: MCLSINJEA2515569
0
TEXT
8
0
10
0
20
-85
30
0
40
2.5
1
OC No.: 5RVN-90235
0
TEXT
8
0
10
0
20
-90
30
0
40
2.5
1
Freight: PREPAID
0
ENDSEC
0
EOF
