0
SECTION
2
ENTITIES
0
TEXT
8
0
10
0
20
0
30
0
40
2.5
1
REQUEST TO CANCEL INVOICE -5250078772 - AL GURG STATIONERY LLC - 5RVN-12705
0
TEXT
8
0
10
0
20
-10
30
0
40
2.5
1
Hi,
0
TEXT
8
0
10
0
20
-20
30
0
40
2.5
1
Query on invoice 5250078772: is the THC / local charge included or billed separately? Please advise the breakdown.
0
TEXT
8
0
10
0
20
-30
30
0
40
2.5
1
Best Regards,
0
TEXT
8
0
10
0
20
-35
30
0
40
2.5
1
Teo Ei Leen
0
TEXT
8
0
10
0
20
-40
30
0
40
2.5
1
Shipping Documentation
0
TEXT
8
0
10
0
20
-45
30
0
40
2.5
1
DID : +971 04 4938224
0
TEXT
8
0
10
0
20
-50
30
0
40
2.5
1
APRIL Fine Paper Trading (Middle East) Fze
0
TEXT
8
0
10
0
20
-55
30
0
40
2.5
1
#813, 4 EA, Dubai Airport Free Zone
0
TEXT
8
0
10
0
20
-60
30
0
40
2.5
1
P.O. Box : 293775, Dubai, United Arab Emirates
0
TEXT
8
0
10
0
20
-65
30
0
40
2.5
1
Website : www.aprilasia.com | www.paperone.com
0
ENDSEC
0
EOF
