0
SECTION
2
ENTITIES
0
TEXT
8
0
10
0
20
0
30
0
40
2.5
1
BILL OF LADING (DRAFT)
0
TEXT
8
0
10
0
20
-5
30
0
40
2.5
1
========================================
0
TEXT
8
0
10
0
20
-15
30
0
40
2.5
1
Shipper: APRIL FAR EAST (M) SDN BHD
0
TEXT
8
0
10
0
20
-20
30
0
40
2.5
1
  TOWER 2, AVENUE 5, LEVEL 6; BANGSAR SOUTH CITY, NO. 8 JALAN KERINCHI; 59200 KUALA LUMPUR, MALAYSIA
0
TEXT
8
0
10
0
20
-25
30
0
40
2.5
1
Consignee: KTP CO., LTD
0
TEXT
8
0
10
0
20
-30
30
0
40
2.5
1
  KTP BLDG., 36 SANGWON-GIL; SEOUNGDONG-GU, SEOUL, SOUTH KOREA; TEL:02-2285-6025
0
TEXT
8
0
10
0
20
-35
30
0
40
2.5
1
NOTIFY PARTY: KTP CO., LTD
0
TEXT
8
0
10
0
20
-40
30
0
40
2.5
1
Port of Loading: NANTONG, CHINA (CNNTG)
0
TEXT
8
0
10
0
20
-45
30
0
40
2.5
1
PORT OF DISCHARGE: BALTIMORE, US (NGAPP)
0
TEXT
8
0
10
0
20
-50
30
0
40
2.5
1
No. of Containers: 6 x 40'HC
0
TEXT
8
0
10
0
20
-55
30
0
40
2.5
1
GROSS WEIGHT: 100,240 KG
0
TEXT
8
0
10
0
20
-60
30
0
40
2.5
1
Vessel Name: VISION 202 V.002
0
TEXT
8
0
10
0
20
-65
30
0
40
2.5
1
Voy.: QI540A
0
TEXT
8
0
10
0
20
-70
30
0
40
2.5
1
Description: COATED IVORY BOARD
0
TEXT
8
0
10
0
20
-75
30
0
40
2.5
1
Bill of Lading No.: MCLSIN1448850
0
TEXT
8
0
10
0
20
-80
30
0
40
2.5
1
Booking No.: MCLSINJEA2515569
0
TEXT
8
0
10
0
20
-85
30
0
40
2.5
1
Freight: PREPAID
0
ENDSEC
0
EOF
