0
SECTION
2
ENTITIES
0
TEXT
8
0
10
0
20
0
30
0
40
2.5
1
BILL OF LADING (DRAFT)
0
TEXT
8
0
10
0
20
-5
30
0
40
2.5
1
========================================
0
TEXT
8
0
10
0
20
-15
30
0
40
2.5
1
Shipper (Principal or Seller): APRIL FAR EAST (M) SDN BHD
0
TEXT
8
0
10
0
20
-20
30
0
40
2.5
1
  TOWER 2, AVENUE 5, LEVEL 6; BANGSAR SOUTH CITY, NO. 8 JALAN KERINCHI; 59200 KUALA LUMPUR, MALAYSIA
0
TEXT
8
0
10
0
20
-25
30
0
40
2.5
1
To the Order of: BALL & DOGGETT AUSTRALIA PTY LTD
0
TEXT
8
0
10
0
20
-30
30
0
40
2.5
1
  43-45 METROPOLITAN ROAD; ENFIELD NSW 2136, AUSTRALIA
0
TEXT
8
0
10
0
20
-35
30
0
40
2.5
1
Notify: BALL & DOGGETT AUSTRALIA PTY LTD
0
TEXT
8
0
10
0
20
-40
30
0
40
2.5
1
POL: SINGAPORE (SGSIN)
0
TEXT
8
0
10
0
20
-45
30
0
40
2.5
1
Discharge Port: PYEONGTAEK, SOUTH KOREA (KRPTK)
0
TEXT
8
0
10
0
20
-50
30
0
40
2.5
1
No. of Containers or Packages: 6 x 40'HC
0
TEXT
8
0
10
0
20
-55
30
0
40
2.5
1
Gross Weight??(KGS): 135,930 KG
0
TEXT
8
0
10
0
20
-60
30
0
40
2.5
1
Vessel: INDO SUKSES 65 V.51NW1
0
TEXT
8
0
10
0
20
-65
30
0
40
2.5
1
Voy. No: 11S
0
TEXT
8
0
10
0
20
-70
30
0
40
2.5
1
Description: ASIA SYMBOL FOOD SERVICE BOARD (CUPSTOCK/HI-BULK) - ALLINONE
0
TEXT
8
0
10
0
20
-75
30
0
40
2.5
1
BL No.: HLCUSIN986143410
0
TEXT
8
0
10
0
20
-80
30
0
40
2.5
1
Booking Reference: 36971179
0
TEXT
8
0
10
0
20
-85
30
0
40
2.5
1
Freight: PREPAID
0
ENDSEC
0
EOF
